<?xml version="1.0" encoding="iso-8859-1"?>
<!-- Generator: Adobe Illustrator 19.0.0, SVG Export Plug-In . SVG Version: 6.00 Build 0)  -->
<svg version="1.1" id="Layer_1" xmlns="http://www.w3.org/2000/svg" xmlns:xlink="http://www.w3.org/1999/xlink" x="0px" y="0px"
	 viewBox="0 0 484.966 484.966" style="enable-background:new 0 0 484.966 484.966;" xml:space="preserve">
<path d="M463.542,186.228c-13.838-13.838-32.237-21.459-51.808-21.459c-3.319,0-6.601,0.237-9.836,0.668
	c2.93-21.878-3.98-44.833-20.758-61.61c-13.838-13.838-32.237-21.459-51.808-21.459c-3.319,0-6.6,0.237-9.835,0.668
	c2.929-21.877-3.981-44.833-20.758-61.61c-28.566-28.567-75.048-28.569-103.615,0l-1.664,1.664L59.381,284.303l-30.12,30.119
	c-18.869,18.869-29.26,43.957-29.26,70.642c0,26.685,10.392,51.772,29.261,70.641c18.869,18.869,43.957,29.261,70.642,29.261
	c26.685,0,51.773-10.392,70.642-29.261l30.12-30.119l261.213-134.081l1.663-1.664C492.107,261.276,492.108,214.794,463.542,186.228z
	 M359.927,125.04c16.694,16.694,16.869,43.748,0.521,60.658l-9.334,7.527l-59.371-59.371l7.527-9.335
	c8.108-7.842,18.755-12.151,30.063-12.151C340.89,112.367,351.755,116.868,359.927,125.04z M198.159,202.119l-34.372,42.626
	l-33.292-33.292l26.117-50.881L198.159,202.119z M171.003,132.537l26.117-50.881l54.349,54.349l-34.372,42.626L171.003,132.537z
	 M219.494,223.453l42.02,42.02l-42.626,34.372l-33.766-33.766L219.494,223.453z M144.848,268.232l-34.372,42.626L89.988,290.37
	l26.117-50.881L144.848,268.232z M166.183,289.567l29.217,29.217l-42.626,34.372l-20.963-20.963L166.183,289.567z M216.735,340.119
	l28.743,28.743l-50.881,26.117l-20.489-20.489L216.735,340.119z M240.222,321.18l42.626-34.372l41.546,41.546l-50.881,26.117
	L240.222,321.18z M306.336,267.87l42.626-34.372l54.349,54.349l-50.881,26.117L306.336,267.87z M285.001,246.535l-46.568-46.568
	l34.372-42.626l54.823,54.823L285.001,246.535z M277.527,42.639c16.868,16.868,16.869,44.314,0.004,61.184
	c-0.005,0.005-0.572,0.572-0.572,0.572l-6.551,8.125l-58.898-58.898l6.41-12.488C234.884,25.784,261.176,26.288,277.527,42.639z
	 M149.332,434.492c-13.203,13.203-30.757,20.474-49.429,20.474c-18.671,0-36.226-7.271-49.429-20.475
	c-13.203-13.202-20.474-30.756-20.474-49.428c0-18.671,7.271-36.226,20.474-49.429l21.177-21.176l98.857,98.857L149.332,434.492z
	 M443.834,267.047l-12.488,6.41l-58.897-58.897l7.501-6.049l0.624-0.503l0.566-0.567c8.172-8.172,19.037-12.672,30.594-12.672
	c11.558,0,22.423,4.5,30.595,12.672C458.679,223.792,459.181,250.084,443.834,267.047z"/>
<g>
</g>
<g>
</g>
<g>
</g>
<g>
</g>
<g>
</g>
<g>
</g>
<g>
</g>
<g>
</g>
<g>
</g>
<g>
</g>
<g>
</g>
<g>
</g>
<g>
</g>
<g>
</g>
<g>
</g>
</svg>
